# xmcd
#
# Track frame offsets: 
#        150
#        13282
#        25480
#        35445
#        47280
#        58542
#        68305
#        79442
#        88715
#        97240
#        107825
#        118505
#        131045
#        141320
#        152297
#        162900
#        176905
#        188017
#        199272
#        209692
#
# Disc length: 2902 seconds
#
# Revision: 6
# Processed by: cddbd v1.5.2PL0 Copyright (c) Steve Scherf et al.
# Submitted via: ExactAudioCopy v0.95b4
#
DISCID=1c0b5414
DTITLE=Various Artist - Treasured Tunes - Volume 1
DYEAR=1900
DGENRE=Oldies Rock
TTITLE0=Leroy Van Dyke - The Auctioneer
TTITLE1=Russ Hamilton - Rainbow
TTITLE2=Del Vikings - Cool Shake
TTITLE3=Billy Myles - The Joker (That's What They Call Me)
TTITLE4=Billy Grammer - Gotta Travel On
TTITLE5=Jerry Keller - Here Comes Summer
TTITLE6=Mitchell Torok - Caribbean
TTITLE7=Johnny Restivo - The Shape I'm In
TTITLE8=Steve Lawrence - Pretty Blue Eyes
TTITLE9=Johnny Ferguson - Angela Jones
TTITLE10=Joe Barry - I'm A Fool To Care
TTITLE11=Walter Brennan - Old Rivers
TTITLE12=Tommy Roe - Susie Darlin'
TTITLE13=Conway Twitty - The Pickup
TTITLE14=The Rocky Fellers - Killer Joe
TTITLE15=Kyu Sakamoto - Sukiyaki (I Look Up When I Walk)
TTITLE16=Diane Renay - Navy Blue
TTITLE17=Nashville Teens - Tobacco Road
TTITLE18=Unit Foru Plus Two - Concrete And Clay
TTITLE19=Sandy Posey - Born A Woman
EXTD=Entered By Itaot...
EXTT0=Leroy Van Dyke
EXTT1=Russ Hamilton
EXTT2=Del Vikings
EXTT3=BILLY Myles
EXTT4=BILLY Grammer
EXTT5=Jerry Keller
EXTT6=Mitchell Torok
EXTT7=Johnny Restivo
EXTT8=Steve Lawrence
EXTT9=Johnny Ferguson
EXTT10=Joe Barry
EXTT11=Walter Brennan
EXTT12=TOMMY Roe
EXTT13=Conway Twitty
EXTT14=Rocky Fellers
EXTT15=Kyu Sakamoto
EXTT16=Diane Renay
EXTT17=Nashville Teens
EXTT18=Unit Four Plus Two
EXTT19=Sandy Posey
PLAYORDER=
